<?xml version="1.0" encoding="utf-8"?>
<!-- Generator: Adobe Illustrator 26.4.1, SVG Export Plug-In . SVG Version: 6.00 Build 0)  -->
<svg version="1.1" id="Layer_1" xmlns="http://www.w3.org/2000/svg" xmlns:xlink="http://www.w3.org/1999/xlink" x="0px" y="0px"
	 viewBox="0 0 16 16" style="enable-background:new 0 0 16 16;" xml:space="preserve">
<style type="text/css">
	.st0{fill:#4FB848;}
	.st1{display:none;}
	.st2{display:inline;fill:#231F20;}
</style>
<g>
	<g>
		<circle class="st0" cx="12.6" cy="3.3" r="3.3"/>
		<path class="st0" d="M3.4,0.1c1.4,0.1,2.4,0.7,3,1.9c0.6,1.2,0.3,2.6-0.6,3.6c-0.5,0.5-0.8,1.1-1,1.8c-0.2,1.1,0.1,2.1,0.9,2.9
			c1.2,1.2,3.2,1.3,4.5,0c0.5-0.5,1.1-0.8,1.8-0.9c1.8-0.3,3.6,0.9,3.8,2.8c0.2,1.8-0.9,3.3-2.6,3.7c-1,0.2-2-0.1-2.7-0.8
			c-0.3-0.2-0.5-0.4-0.8-0.6c-1.3-0.8-2.9-0.6-3.9,0.4c-0.5,0.5-1.2,0.9-1.9,1c-1.6,0.3-3.3-0.9-3.6-2.5c-0.1-0.4-0.1-0.8,0-1.2
			c0.1-0.8,0.5-1.4,1-1.9c0.4-0.4,0.7-1,0.8-1.6c0.2-1.1-0.1-2-0.9-2.8C0.7,5.2,0.4,4.7,0.2,4.1C0.1,3.7,0.1,3.3,0.2,2.9
			c0.1-1.2,1.2-2.5,2.6-2.7C3,0.1,3.2,0.1,3.4,0.1z"/>
	</g>
	<g class="st1">
		<path class="st2" d="M-1.1,19c0,0.8-0.5,1.7-1.6,1.7c-0.4,0-0.9,0-1.3,0v-3.3c0.4,0,0.9,0,1.3,0C-1.6,17.4-1.1,18.2-1.1,19z
			 M-3.4,20h0.7c0.7,0,1-0.5,1-1.1c0-0.5-0.3-1-1-1h-0.7V20z"/>
		<path class="st2" d="M-0.2,17.7c0,0.4-0.7,0.4-0.7,0C-0.8,17.2-0.2,17.2-0.2,17.7z M-0.8,18.3v2.3h0.6v-2.3H-0.8z"/>
		<path class="st2" d="M2,18.1l0.4,0.3l-0.3,0.3c0.2,0.2,0.2,0.4,0.2,0.7c0,0.3-0.1,0.7-0.5,0.9c0.4,0.2,0.5,0.5,0.5,0.8
			c0,0.6-0.5,1-1.2,1s-1.2-0.4-1.2-1h0.6c0,0.3,0.3,0.5,0.6,0.5s0.6-0.2,0.6-0.5c0-0.3-0.3-0.5-0.6-0.5c-0.7,0-1.2-0.4-1.2-1.2
			c0-0.7,0.5-1.2,1.2-1.2c0.2,0,0.4,0,0.5,0.1L2,18.1z M0.7,19.4c0,0.4,0.3,0.6,0.6,0.6c0.3,0,0.6-0.2,0.6-0.6s-0.3-0.7-0.6-0.7
			C0.9,18.8,0.7,19,0.7,19.4z"/>
		<path class="st2" d="M3.4,17.7c0,0.4-0.7,0.4-0.7,0C2.8,17.2,3.4,17.2,3.4,17.7z M2.8,18.3v2.3h0.6v-2.3H2.8z"/>
		<path class="st2" d="M4.7,17.7v0.7h0.6v0.5H4.7v1c0,0.2,0.1,0.3,0.3,0.3c0.1,0,0.2,0,0.3-0.1l0.2,0.5c-0.2,0.1-0.3,0.1-0.5,0.1
			c-0.5,0-0.8-0.3-0.8-0.8v-1H3.7v-0.5h0.4v-0.6L4.7,17.7z"/>
		<path class="st2" d="M7.4,18.3H8v2.3H7.4l0-0.3c-0.1,0.3-0.5,0.4-0.7,0.4c-0.7,0-1.2-0.4-1.2-1.2c0-0.8,0.5-1.2,1.2-1.2
			c0.3,0,0.6,0.1,0.7,0.4L7.4,18.3z M6,19.5c0,0.4,0.3,0.7,0.7,0.7c0.9,0,0.9-1.4,0-1.4C6.3,18.8,6,19,6,19.5z"/>
		<path class="st2" d="M8.9,17.4v3.3H8.4v-3.3H8.9z"/>
		<path class="st2" d="M11.7,19.5c0,0.7-0.5,1.2-1.2,1.2s-1.2-0.5-1.2-1.2c0-0.7,0.5-1.2,1.2-1.2C11.2,18.3,11.7,18.8,11.7,19.5z
			 M9.8,19.5c0,0.4,0.2,0.7,0.6,0.7s0.6-0.3,0.6-0.7c0-0.3-0.2-0.7-0.6-0.7C10,18.8,9.8,19.1,9.8,19.5z"/>
		<path class="st2" d="M13.8,18.1l0.4,0.3l-0.3,0.3c0.2,0.2,0.2,0.4,0.2,0.7c0,0.3-0.1,0.7-0.5,0.9c0.4,0.2,0.5,0.5,0.5,0.8
			c0,0.6-0.5,1-1.2,1s-1.2-0.4-1.2-1h0.6c0,0.3,0.3,0.5,0.6,0.5s0.6-0.2,0.6-0.5c0-0.3-0.3-0.5-0.6-0.5c-0.7,0-1.2-0.4-1.2-1.2
			c0-0.7,0.5-1.2,1.2-1.2c0.2,0,0.4,0,0.5,0.1L13.8,18.1z M12.4,19.4c0,0.4,0.3,0.6,0.6,0.6c0.3,0,0.6-0.2,0.6-0.6s-0.3-0.7-0.6-0.7
			C12.7,18.8,12.4,19,12.4,19.4z"/>
		<path class="st2" d="M15.1,17.7c0,0.4-0.7,0.4-0.7,0C14.4,17.2,15.1,17.2,15.1,17.7z M14.5,18.3v2.3h0.6v-2.3H14.5z"/>
		<path class="st2" d="M15.9,19.7c0,0.3,0.3,0.5,0.7,0.5c0.2,0,0.5-0.1,0.6-0.2l0.4,0.4c-0.2,0.3-0.6,0.4-1,0.4
			c-0.8,0-1.3-0.5-1.3-1.2c0-0.7,0.5-1.2,1.2-1.2c0.8,0,1.3,0.5,1.2,1.4L15.9,19.7L15.9,19.7z M17.2,19.2c0-0.3-0.3-0.5-0.6-0.5
			c-0.3,0-0.6,0.1-0.6,0.5H17.2z"/>
		<path class="st2" d="M19.6,18.9c-0.2-0.2-0.4-0.2-0.6-0.2c-0.3,0-0.4,0.1-0.4,0.2c0,0.1,0.1,0.2,0.4,0.3c0.4,0,1,0.1,1,0.7
			c0,0.4-0.3,0.8-1,0.8c-0.4,0-0.7-0.1-1.1-0.4l0.3-0.4c0.2,0.2,0.5,0.3,0.8,0.3c0.2,0,0.4-0.1,0.4-0.3c0-0.2-0.1-0.2-0.5-0.2
			c-0.4,0-1-0.2-1-0.7c0-0.5,0.6-0.7,1-0.7c0.4,0,0.6,0.1,0.9,0.3L19.6,18.9z"/>
	</g>
</g>
</svg>
